<svg width="707" height="109" viewBox="0 0 707 109" fill="none" xmlns="http://www.w3.org/2000/svg">
<path d="M41.5902 69.1833C29.0507 67.3092 30.4553 49.2174 43.1402 49.2174H93.8825C101.679 49.2174 108 55.4006 108 63.028V95.1895C108 102.817 101.679 109 93.8825 109H43.1402C30.4553 109 29.0507 90.9082 41.5902 89.0341C53.2083 87.2977 53.2083 70.9197 41.5902 69.1833Z" fill="#F0DB4F"/>
<path d="M8 23.6516C8 15.5597 14.7055 9.00002 22.9772 9.00002H75.5473C88.7325 9.00002 90.2854 27.7661 77.2718 29.8407L71.2295 30.804C60.1687 32.5673 60.3276 48.1834 71.4221 49.731C83.4562 51.4097 82.1964 68.7826 70.0405 68.7826H21.2478C13.9312 68.7826 8 62.9803 8 55.8229V23.6516Z" fill="#F0DB4F"/>
<path d="M109 53C109 28.6995 128.699 9.00002 153 9.00002H165C189.301 9.00002 209 28.6995 209 53V65C209 89.3005 189.301 109 165 109H153C128.699 109 109 89.3005 109 65V53Z" fill="#F0DB4F"/>
<path d="M607 53C607 28.6995 626.699 9.00002 651 9.00002H663C687.301 9.00002 707 28.6995 707 53V65C707 89.3005 687.301 109 663 109H651C626.699 109 607 89.3005 607 65V53Z" fill="#F0DB4F"/>
<path d="M412 25C412 16.1635 419.163 9.00002 428 9.00002H496C504.837 9.00002 512 16.1635 512 25V93C512 101.837 504.837 109 496 109H428C419.163 109 412 101.837 412 93V25Z" fill="#F0DB4F"/>
<path d="M513 25C513 16.1635 520.099 9.00002 528.857 9.00002H575.568C594.09 9.00002 597.289 35.7179 579.3 40.1691C563.794 44.006 563.24 66.0473 578.534 70.6725L601.683 77.6737C619.182 82.966 615.398 109 597.13 109H528.857C520.099 109 513 101.837 513 93V25Z" fill="#F0DB4F"/>
<path d="M210 26.8015C210 16.97 216.245 9.00003 223.948 9.00003H256.122C263.825 9.00003 270.07 16.97 270.07 26.8015V96.1326C270.07 112.107 251.787 113.769 250.013 97.9556C248.362 83.234 231.709 83.2341 230.057 97.9556C228.284 113.769 210 112.107 210 96.1326V26.8015Z" fill="#F0DB4F"/>
<path d="M249.93 26.8015C249.93 16.97 256.174 9 263.878 9H296.052C303.755 9 310 16.97 310 26.8015V96.1326C310 112.107 291.716 113.769 289.943 97.9556C288.291 83.234 271.638 83.234 269.987 97.9556C268.213 113.769 249.93 112.107 249.93 96.1326V26.8015Z" fill="#F0DB4F"/>
<path d="M328.801 109C318.97 109 311 102.755 311 95.0519V62.8779C311 55.1745 318.97 48.9298 328.801 48.9298H398.133C414.107 48.9298 415.768 67.2134 399.956 68.9871C385.234 70.6384 385.234 87.2914 399.956 88.9427C415.769 90.7164 414.107 109 398.133 109H328.801Z" fill="#F0DB4F"/>
<path d="M328.801 69.0703C318.97 69.0703 311 62.8255 311 55.1222V22.9481C311 15.2448 318.97 9.00002 328.801 9.00002H398.133C414.107 9.00002 415.768 27.2837 399.956 29.0573C385.234 30.7086 385.234 47.3617 399.956 49.0129C415.768 50.7866 414.107 69.0703 398.133 69.0703H328.801Z" fill="#F0DB4F"/>
<path d="M33.5902 60.1833C21.0507 58.3092 22.4553 40.2174 35.1402 40.2174H85.8825C93.6794 40.2174 100 46.4006 100 54.028V86.1895C100 93.8168 93.6794 100 85.8825 100H35.1402C22.4553 100 21.0507 81.9082 33.5902 80.0341C45.2083 78.2977 45.2083 61.9197 33.5902 60.1833Z" fill="white"/>
<path d="M0 14.6516C0 6.55974 6.7055 1.52588e-05 14.9772 1.52588e-05H67.5473C80.7325 1.52588e-05 82.2854 18.7661 69.2718 20.8407L63.2295 21.804C52.1687 23.5673 52.3276 39.1834 63.4221 40.731C75.4562 42.4097 74.1964 59.7826 62.0405 59.7826H13.2478C5.93123 59.7826 0 53.9803 0 46.8229V14.6516Z" fill="white"/>
<path d="M101 44C101 19.6995 120.699 1.52588e-05 145 1.52588e-05H157C181.301 1.52588e-05 201 19.6995 201 44V56C201 80.3005 181.301 100 157 100H145C120.699 100 101 80.3005 101 56V44Z" fill="white"/>
<path d="M599 44C599 19.6995 618.699 1.52588e-05 643 1.52588e-05H655C679.301 1.52588e-05 699 19.6995 699 44V56C699 80.3005 679.301 100 655 100H643C618.699 100 599 80.3005 599 56V44Z" fill="white"/>
<path d="M404 16C404 7.16346 411.163 1.52588e-05 420 1.52588e-05H488C496.837 1.52588e-05 504 7.16346 504 16V84C504 92.8366 496.837 100 488 100H420C411.163 100 404 92.8366 404 84V16Z" fill="white"/>
<path d="M505 16C505 7.16346 512.099 1.52588e-05 520.857 1.52588e-05H567.568C586.09 1.52588e-05 589.289 26.7179 571.3 31.1691C555.794 35.006 555.24 57.0473 570.534 61.6725L593.683 68.6737C611.182 73.966 607.398 100 589.13 100H520.857C512.099 100 505 92.8366 505 84V16Z" fill="white"/>
<path d="M202 17.8015C202 7.97001 208.245 3.05176e-05 215.948 3.05176e-05H248.122C255.825 3.05176e-05 262.07 7.97001 262.07 17.8015V87.1326C262.07 103.107 243.787 104.769 242.013 88.9556C240.362 74.234 223.709 74.2341 222.057 88.9556C220.284 104.769 202 103.107 202 87.1326V17.8015Z" fill="white"/>
<path d="M241.93 17.8015C241.93 7.96998 248.175 0 255.878 0H288.052C295.755 0 302 7.96998 302 17.8015V87.1326C302 103.107 283.716 104.769 281.943 88.9556C280.291 74.234 263.638 74.234 261.987 88.9556C260.213 104.769 241.93 103.107 241.93 87.1326V17.8015Z" fill="white"/>
<path d="M320.801 100C310.97 100 303 93.7552 303 86.0519V53.8779C303 46.1745 310.97 39.9298 320.801 39.9298H390.133C406.107 39.9298 407.768 58.2134 391.956 59.9871C377.234 61.6384 377.234 78.2914 391.956 79.9427C407.769 81.7164 406.107 100 390.133 100H320.801Z" fill="white"/>
<path d="M320.801 60.0703C310.97 60.0703 303 53.8255 303 46.1222V13.9481C303 6.2448 310.97 1.77079e-05 320.801 1.77079e-05H390.133C406.107 1.77079e-05 407.768 18.2837 391.956 20.0573C377.234 21.7086 377.234 38.3617 391.956 40.0129C407.768 41.7866 406.107 60.0703 390.133 60.0703H320.801Z" fill="white"/>
</svg>
