<svg width="500" height="500" viewBox="0 0 500 500" fill="none" xmlns="http://www.w3.org/2000/svg">
<path d="M0 0H500V500H0V0Z" fill="white"/>
<path d="M205.292 276.335C171.738 271.315 175.496 222.848 209.44 222.848H345.223C366.085 222.848 383 239.413 383 259.845V346.003C383 366.436 366.085 383 345.223 383H209.44C175.496 383 171.738 334.534 205.292 329.513C236.381 324.862 236.381 280.987 205.292 276.335Z" fill="#F0DB4F"/>
<path d="M115.407 154.36C115.407 132.683 133.351 115.11 155.485 115.11H296.159C331.442 115.11 335.597 165.383 300.774 170.94L284.605 173.521C255.007 178.245 255.432 220.078 285.12 224.224C317.323 228.721 313.951 275.262 281.423 275.262H150.858C131.279 275.262 115.407 259.718 115.407 240.544V154.36Z" fill="#F0DB4F"/>
<path d="M183.885 252.225C150.33 247.204 154.089 198.738 188.033 198.738H323.815C344.679 198.738 361.593 215.303 361.593 235.735V321.893C361.593 342.326 344.679 358.89 323.815 358.89H188.033C154.089 358.89 150.33 310.424 183.885 305.403C214.974 300.752 214.974 256.877 183.885 252.225Z" fill="white"/>
<path d="M94 130.25C94 108.573 111.943 91 134.078 91H274.752C310.034 91 314.19 141.272 279.366 146.83L263.197 149.411C233.6 154.134 234.025 195.968 263.713 200.114C295.915 204.611 292.544 251.152 260.016 251.152H129.45C109.872 251.152 94 235.608 94 216.434V130.25Z" fill="white"/>
</svg>
