<svg width="485" height="485" viewBox="0 0 485 485" fill="none" xmlns="http://www.w3.org/2000/svg">
<path d="M0 0H485V485H0V0Z" fill="white"/>
<path d="M209.584 282.755C179.861 278.319 183.19 235.496 213.258 235.496H333.536C352.017 235.496 367 250.132 367 268.185V344.311C367 362.365 352.017 377 333.536 377H213.258C183.19 377 179.861 334.177 209.584 329.741C237.123 325.631 237.123 286.865 209.584 282.755Z" fill="#F0DB4F"/>
<path d="M129.963 174.983C129.963 155.829 145.857 140.303 165.464 140.303H290.075C321.329 140.303 325.01 184.722 294.163 189.632L279.84 191.912C253.622 196.086 253.999 233.049 280.297 236.712C308.822 240.685 305.836 281.807 277.022 281.807H161.365C144.022 281.807 129.963 268.073 129.963 251.131V174.983Z" fill="#F0DB4F"/>
<path d="M190.621 261.452C160.898 257.016 164.227 214.193 194.295 214.193H314.573C333.055 214.193 348.037 228.829 348.037 246.883V323.008C348.037 341.062 333.055 355.697 314.573 355.697H194.295C164.227 355.697 160.898 312.874 190.621 308.439C218.16 304.328 218.16 265.562 190.621 261.452Z" fill="white"/>
<path d="M111 153.68C111 134.527 126.895 119 146.502 119H271.112C302.366 119 306.047 163.419 275.2 168.329L260.877 170.609C234.659 174.783 235.036 211.746 261.334 215.409C289.859 219.382 286.873 260.504 258.059 260.504H142.402C125.059 260.504 111 246.77 111 229.829V153.68Z" fill="white"/>
</svg>
