<svg width="108" height="109" viewBox="0 0 108 109" fill="none" xmlns="http://www.w3.org/2000/svg">
<path d="M41.5902 69.1833C29.0507 67.3092 30.4553 49.2174 43.1402 49.2174H93.8825C101.679 49.2174 108 55.4006 108 63.0279V95.1894C108 102.817 101.679 109 93.8825 109H43.1402C30.4553 109 29.0507 90.9082 41.5902 89.0341C53.2083 87.2977 53.2083 70.9197 41.5902 69.1833Z" fill="#4C4C4C"/>
<path d="M8 23.6516C8 15.5597 14.7055 9 22.9772 9H75.5473C88.7325 9 90.2854 27.7661 77.2718 29.8407L71.2295 30.804C60.1687 32.5673 60.3276 48.1834 71.4221 49.731C83.4562 51.4096 82.1964 68.7826 70.0406 68.7826H21.2478C13.9312 68.7826 8 62.9803 8 55.8229V23.6516Z" fill="#4C4C4C"/>
<path d="M33.5902 60.1833C21.0507 58.3092 22.4553 40.2174 35.1402 40.2174H85.8825C93.6794 40.2174 100 46.4006 100 54.0279V86.1894C100 93.8168 93.6794 100 85.8825 100H35.1402C22.4553 100 21.0507 81.9082 33.5902 80.0341C45.2083 78.2977 45.2083 61.9197 33.5902 60.1833Z" fill="white"/>
<path d="M0 14.6516C0 6.55973 6.7055 0 14.9772 0H67.5473C80.7325 0 82.2854 18.7661 69.2718 20.8407L63.2295 21.804C52.1687 23.5673 52.3276 39.1834 63.4221 40.731C75.4562 42.4096 74.1964 59.7826 62.0405 59.7826H13.2478C5.93123 59.7826 0 53.9803 0 46.8229V14.6516Z" fill="white"/>
</svg>
